<svg id="Layer_1"
     data-name="Layer 1"
     xmlns="http://www.w3.org/2000/svg" width="84" height="84"
     viewBox="0 0 64 64">
    <defs>
        <style>
            .cls-1{fill:url(#grad);}
        </style>
        <linearGradient id="grad" x1="0%" y1="0%" x2="100%" y2="100%">
            <stop offset="0%" style="stop-color:#f7ff00;stop-opacity:10" />
            <stop offset="100%" style="stop-color:#ff2400;stop-opacity:10" />
        </linearGradient>
    </defs>
    <title>space-ship</title>
    <g id="space-ship-3">
        <path class="cls-1" d="M38.76,20.79c.37-.18-2.36-7.93-2.45-8.1a7.94,7.94,0,0,0-4.16-1c-2.33,0-4.25.75-4.155,1.22-.6.93-3,7.72-2.77,7.88s3-.71,16.6-.94S38.39,21,38.76,20.79Zm-1.42-1.5a21.22,21.22,0,0,0-6.28-.86c-3.2.22-4.8,1.27-4.81,1s1.83-6,2.15-6.15a10,10,0,0,1,3.69-.61,7.26,7.26,0,0,1,3.57.85C35.93,13.83,37.63,19.24,37.34,19.29ZM29.4,10c.24-.17,1.42-2.83,1.66-3.26s-.17-.16-.55-.11S28.68,9.75,28.6,10C28.6,10,29.15,10.19,29.4,10Zm-5.71,12.8S21.91,27.74,22,27.91s.55.11.75-.11,1.78-4.6,1.82-4.81S23.69,22.81,23.69,22.81ZM22.47,31c0,.25,1,4,1.09,4.39s.46.07.71,0-.79-4-1-4.31S22.46,30.68,22.47,31Zm16.81-5.2c0,.17-.57.43-.52.6s2.6,1.92,2.6,1.92a1.43,1.43,0,0,0,.28-.55A9.7,9.7,0,0,0,39.28,25.77Zm-1.69,2c0,.21-.65.44-.56.73a36.7,36.7,0,0,0,3.92,2.89c.17.08.2-.34.19-.51S37.64,27.5,37.59,27.78Zm-.77,2.11c-.12.17-.37.26-.31.63a21.74,21.74,0,0,0,4.14,3.3c.16-.09.16-.09.11-.38A23.22,23.22,0,0,0,36.82,29.89Zm3.51,5.82a25.77,25.77,0,0,0-3.47-3.07c-.08,0-.49.43-.44.6a32,32,0,0,0,3.84,2.89C40.42,36.08,40.28,35.87,40.32,35.71Zm-3.17-.2s-.36.43-.36.59a20,20,0,0,0,2.73,2.17c.17,0,.15-.55.15-.67A25.33,25.33,0,0,0,37.15,35.51ZM48.44,46.76c0,.13-.62.27-.53.52a40.63,40.63,0,0,0,2.52,3.64c.17.08.62-.31.65-.48A20.8,20.8,0,0,0,48.44,46.76Zm1.7-1.8c-.21,0-.66.19-.66.39a21.68,21.68,0,0,0,2.68,3.21c.38.16.24-.3.24-.51A18.5,18.5,0,0,0,50.14,45Zm.59-1.35C50.85,43.73,52.8,46,53,46s.16-.34.23-.63-1.86-2.28-2-2.4S50.72,43.61,50.72,43.61Zm1.41-3.08c-.25,0-.27.63-.31.76s1.46,1.29,1.58,1.33.15-.59.06-.84S52.38,40.52,52.13,40.53Zm3.24-8.93c-1.4-3.59-3.29-4.11-3.7-4.06s-.79,1.65-.79,1.52a9.57,9.57,0,0,0-3-.16c-.2.17.06,1.92.06,1.92a3.54,3.54,0,0,0-1.16.33c-.29.22.39,7.74.39,7.74s-.11.55-1.49,1.92a24.88,24.88,0,0,1-2.43,2.28,14.25,14.25,0,0,0-.87,3l-2.52.87s1.3-4,2.28-7.45,3.28-10.43,3.16-11.64S43,22.54,43,22.54s.72-6.86.66-7.19-1.73-.66-1.73-.66.1-2.3,0-2.59-2.22-.39-2.43-.35-.16,1.59-.16,1.59S37.26,8.12,36,5.7,31.52,3,29.06,4.32s-5.53,8.83-5.66,8.92,0-1.13,0-1.29a4.48,4.48,0,0,0-2,.1c-.33.13,0,3,0,3a5.17,5.17,0,0,0-1.08.07c-.25.09.36,5,.36,5S17.83,28.78,17.86,29c.74,5.19,5.83,18.29,5.83,18.29a34.61,34.61,0,0,1-3.43-.48c-.3-.16-1.17-4.34-1.26-4.63s0,0-.76-.39a20,20,0,0,1-2.79-2.67s0-8.92-.08-9.71-1.77-.61-1.77-.61a13.16,13.16,0,0,0,.07-1.71c-.05-.42-2.5-.09-2.5-.09s-.06-.79-.12-1.08a.92.92,0,0,0-.77-.73c-.46-.07-1.24.2-1.95,3.18S7.28,39,7.81,45.71s2.67,8.43,6.3,10,8.37,1.13,8.56.67a11.7,11.7,0,0,0-.42-3l3,.16s.87,2.68,1,2.89,1.63.12,1.63.12a30.62,30.62,0,0,0,.65,3.77c.22.33,5.92,0,6.17-.14A16.78,16.78,0,0,0,35,56.83a4.37,4.37,0,0,0,1.41-.12,12.33,12.33,0,0,0,.89-2.32h2.79s-.17,1.21-.2,1.67.56.65,1.19.84,3.05.41,6.78-.57,5.86-3.47,7.44-7.89S56.77,35.18,55.37,31.6ZM13.86,30.19c0,.17.44,6.57.23,6.45a20.57,20.57,0,0,1-2.61-6.55C11.44,29.8,13.85,30,13.86,30.19Zm-2.32-2.47c.14-.15,1.16-.12,1.21,0s.16,1.12,0,1.21-1.33.25-1.33.08A10,10,0,0,1,11.53,27.72ZM20.36,54.3c-.12.09-.41.18-.5,0a45,45,0,0,0-3.63-4.52c-.34-.07-.58,0-.66.19s3.47,4.48,3.22,4.49a4,4,0,0,1-1.25-.09c-.17-.12-2.56-3.51-2.73-3.59s-.82.36-.69.56,2.5,2.89,2.25,2.89a7,7,0,0,1-5.71-4.17C9,46.3,9.7,33.56,9.86,31.85c0-.39.87,5.48,3.19,7.87a22.23,22.23,0,0,0,4.23,3.5s2.57,8.14,2.4,8-1.78-2.41-1.95-2.44-.57.39-.53.52,2.73,3.46,2.86,3.75S20.48,54.21,20.36,54.3Zm13,5.12a21.51,21.51,0,0,1-4,.08c0-.17-.58-2.69-.37-2.7a44.38,44.38,0,0,1,4.75-.1C33.77,56.87,33.68,59.33,33.39,59.42ZM34.51,45a9.13,9.13,0,0,0-1.81-.57c0,.13-.3,1,0,1.17s1.53.83,1.53.83-1.34,8.33-1.59,8.38-1.37.21-1.5,0-2.68-11.63-2.64-12S30.66,29,30.9,28.69s.92,0,1,.14,2.35,7.73,2.19,7.73-1.4-.92-1.4-.79-.27.84-.1,1,1.79,1.2,1.92,1.61.79,2.64.79,2.64a19.76,19.76,0,0,0-2.18-2c-.12.09-.36.43-.19.59S35.16,41.65,35,42a4.57,4.57,0,0,0-.15.63,17.31,17.31,0,0,0-2.25-1.48c-.12.09-.36.47-.15.67s2.21,1.52,2.22,1.77S34.51,45,34.51,45Zm.75,10.07c-.25,0-.5.06-.5-.15s2.63-12.58,2.56-13.58-3.77-13.48-4.25-14-3.23-.61-3.63-.23-2.84,15.38-2.74,16,2.88,11.34,2.55,11.43a1.88,1.88,0,0,1-1.16.12c-.34-.16-7.69-23.45-7.91-25.28S23,18.46,24.77,14.49,28.83,4.91,32,4.94c2.33,0,3.41,2.57,5,6.23s6.54,16.77,6.57,17.9S35.51,55.11,35.26,55.11ZM49.15,29.9a6.26,6.26,0,0,1,1.38,0s0,.67-.19.71a6.19,6.19,0,0,1-1.26-.25S48.74,30,49.15,29.9ZM48.1,32.27c.18-.1,1.91-.26,1.87-.1a48,48,0,0,1-1.85,5.06A38.83,38.83,0,0,1,48.1,32.27Zm5.34,15.64a11.34,11.34,0,0,1-3.36,4.89,43.48,43.48,0,0,0-2.88-4.42c-.25,0-.75.11-.61.35s2.84,4.59,2.68,4.76a6.86,6.86,0,0,1-1.32.54s-2-3.86-2.24-3.85-.87.23-.78.36S47.2,54.1,47,54.27a1.35,1.35,0,0,1-.58.23l-1.79-2.62s-.66.23-.53.43,1.53,2.25,1.24,2.38-3,.55-3,.25S45,44.28,45,44.11a31.12,31.12,0,0,0,5.13-6.9c1.85-3.76,2.4-6.24,2.61-6.29s1.32,2.46,1.38,5.92S54.39,44.92,53.44,47.91Z"/></g></svg>